<?xml version="1.0" encoding="UTF-8" standalone="no"?>
<!-- Created with Inkscape (http://www.inkscape.org/) -->

<svg
   width="477.92694"
   height="411.27075"
   viewBox="0 0 477.92694 411.27075"
   version="1.1"
   id="svg5"
   xmlns:inkscape="http://www.inkscape.org/namespaces/inkscape"
   xmlns:sodipodi="http://sodipodi.sourceforge.net/DTD/sodipodi-0.dtd"
   xmlns="http://www.w3.org/2000/svg"
   xmlns:svg="http://www.w3.org/2000/svg">
  <sodipodi:namedview
     id="namedview7"
     pagecolor="#ffffff"
     bordercolor="#000000"
     borderopacity="0.25"
     inkscape:showpageshadow="2"
     inkscape:pageopacity="0.0"
     inkscape:pagecheckerboard="0"
     inkscape:deskcolor="#d1d1d1"
     inkscape:document-units="px"
     showgrid="false"
     showguides="false" />
  <defs
     id="defs2" />
  <g
     inkscape:label="Layer 1"
     inkscape:groupmode="layer"
     id="layer1"
     transform="translate(-17.430084,-49.724018)">
    <rect
       style="fill:#f2f2f2"
       id="rect165"
       width="476.85379"
       height="409.98956"
       x="17.573105"
       y="51.005219"
       rx="15"
       ry="12" />
    <rect
       style="fill:#000080;stroke-width:1.00002"
       id="rect327"
       height="51.6166"
       x="18.434402"
       y="49.720592"
       transform="matrix(0.99999995,3.1836805e-4,-0.00991065,0.99995089,0,0)"
       inkscape:transform-center-x="95.868865"
       inkscape:transform-center-y="-5.2323755"
       width="477.41541" />
    <path
       style="fill:#ab37c8"
       id="path643"
       sodipodi:type="arc"
       sodipodi:cx="465.65402"
       sodipodi:cy="75.507835"
       sodipodi:rx="9.7245426"
       sodipodi:ry="9.2989559"
       sodipodi:start="0"
       sodipodi:end="6.282373"
       sodipodi:arc-type="slice"
       d="m 475.37856,75.507835 a 9.7245426,9.2989559 0 0 1 -9.72256,9.298956 9.7245426,9.2989559 0 0 1 -9.72652,-9.295179 9.7245426,9.2989559 0 0 1 9.71862,-9.302731 9.7245426,9.2989559 0 0 1 9.73046,9.291401 l -9.72454,0.0076 z" />
    <path
       style="fill:#ab37c8"
       id="path643-3"
       sodipodi:type="arc"
       sodipodi:cx="442"
       sodipodi:cy="75.417755"
       sodipodi:rx="9.7245426"
       sodipodi:ry="9.2989559"
       sodipodi:start="0"
       sodipodi:end="6.282373"
       sodipodi:arc-type="slice"
       d="m 451.72454,75.417755 a 9.7245426,9.2989559 0 0 1 -9.72257,9.298956 9.7245426,9.2989559 0 0 1 -9.72651,-9.295179 9.7245426,9.2989559 0 0 1 9.71862,-9.302731 9.7245426,9.2989559 0 0 1 9.73046,9.291401 L 442,75.417755 Z" />
    <path
       style="fill:#ab37c8"
       id="path643-6"
       sodipodi:type="arc"
       sodipodi:cx="419.28458"
       sodipodi:cy="75.686684"
       sodipodi:rx="9.7245426"
       sodipodi:ry="9.2989559"
       sodipodi:start="0"
       sodipodi:end="6.282373"
       sodipodi:arc-type="slice"
       d="m 429.00912,75.686684 a 9.7245426,9.2989559 0 0 1 -9.72257,9.298955 9.7245426,9.2989559 0 0 1 -9.72652,-9.295179 9.7245426,9.2989559 0 0 1 9.71862,-9.302731 9.7245426,9.2989559 0 0 1 9.73047,9.291401 l -9.72454,0.0076 z" />
    <rect
       style="fill:#cccccc;stroke-width:1.06046"
       id="rect841-7"
       width="201.54762"
       height="28.98695"
       x="-480.49075"
       y="113.49872"
       rx="16.868551"
       ry="12"
       transform="scale(-1,1)" />
    <rect
       style="fill:#cccccc;stroke-width:1.18543"
       id="rect841-7-5"
       width="251.85379"
       height="28.98695"
       x="-481.46997"
       y="151.98174"
       rx="21.07893"
       ry="12"
       transform="scale(-1,1)" />
    <rect
       style="fill:#cccccc;stroke-width:1.06046"
       id="rect841-7-3"
       width="201.54762"
       height="28.98695"
       x="-480.88568"
       y="189.30028"
       rx="16.868551"
       ry="12"
       transform="scale(-1,1)" />
    <rect
       style="fill:#cccccc;stroke-width:1.13899"
       id="rect841-7-56"
       width="232.50639"
       height="28.98695"
       x="-479.30017"
       y="227.41516"
       rx="19.45965"
       ry="12"
       transform="scale(-1,1)" />
    <rect
       style="fill:#cccccc;stroke-width:1.13899"
       id="rect841-7-5-2"
       width="232.50639"
       height="28.98695"
       x="-480.42981"
       y="265.89816"
       rx="19.45965"
       ry="12"
       transform="scale(-1,1)" />
    <rect
       style="fill:#cccccc;stroke-width:1.06046"
       id="rect841-7-3-9"
       width="201.54762"
       height="28.98695"
       x="-479.84552"
       y="303.21671"
       rx="16.868551"
       ry="12"
       transform="scale(-1,1)" />
    <rect
       style="fill:#00aad4;stroke-width:0.936737"
       id="rect1023"
       width="124.40469"
       height="44.284595"
       x="344.28195"
       y="402.44647"
       rx="24.569355"
       ry="28" />
    <rect
       style="fill:#e6e6e6"
       id="rect1129"
       width="168.00522"
       height="152.05482"
       x="36.613586"
       y="112.79112"
       rx="24.569355"
       ry="28" />
  </g>
</svg>
